HIERARCHY
ROOT Hips
{
	OFFSET -0.217368 -24.078918 2.858379
	CHANNELS 6 Xposition Yposition Zposition Zrotation Yrotation Xrotation
	JOINT LeftUpLeg
	{
		OFFSET 5.858135 -8.228001 -1.766408
		CHANNELS 3 Zrotation Yrotation Xrotation
		JOINT LeftLeg
		{
			OFFSET -6.030973 -9.051329 -1.354253
			CHANNELS 3 Zrotation Yrotation Xrotation
			JOINT LeftFoot
			{
				OFFSET 0.443945 12.440356 -3.838522
				CHANNELS 3 Zrotation Yrotation Xrotation
				JOINT LeftToe
				{
					OFFSET 17.299986 -0.000006 0.000006
					CHANNELS 3 Zrotation Yrotation Xrotation
					End Site
					{
						OFFSET 0.000000 0.000000 0.000000
					}
				}
			}
		}
	}
	JOINT RightUpLeg
	{
		OFFSET 0.103458 1.857829 -10.548508
		CHANNELS 3 Zrotation Yrotation Xrotation
		JOINT RightLeg
		{
			OFFSET 43.500046 -0.000027 0.000013
			CHANNELS 3 Zrotation Yrotation Xrotation
			JOINT RightFoot
			{
				OFFSET 42.372257 0.000000 -0.000004
				CHANNELS 3 Zrotation Yrotation Xrotation
				JOINT RightToe
				{
					OFFSET 17.299995 -0.000005 0.000013
					CHANNELS 3 Zrotation Yrotation Xrotation
					End Site
					{
						OFFSET 0.000000 0.000000 0.000000
					}
				}
			}
		}
	}
	JOINT Spine
	{
		OFFSET 6.901965 -2.603728 -0.000004
		CHANNELS 3 Zrotation Yrotation Xrotation
		JOINT Spine1
		{
			OFFSET 12.588104 -0.000006 -0.000004
			CHANNELS 3 Zrotation Yrotation Xrotation
			JOINT Spine2
			{
				OFFSET 12.343203 0.000011 0.000026
				CHANNELS 3 Zrotation Yrotation Xrotation
				JOINT Neck
				{
					OFFSET 25.832888 0.000002 -0.000025
					CHANNELS 3 Zrotation Yrotation Xrotation
					JOINT Head
					{
						OFFSET 11.766613 -0.000025 0.000014
						CHANNELS 3 Zrotation Yrotation Xrotation
						End Site
						{
							OFFSET 0.000000 0.000000 0.000000
						}
					}
				}
				JOINT LeftShoulder
				{
					OFFSET 19.745892 -1.480383 6.000091
					CHANNELS 3 Zrotation Yrotation Xrotation
					JOINT LeftArm
					{
						OFFSET 11.284117 -0.000032 -0.000012
						CHANNELS 3 Zrotation Yrotation Xrotation
						JOINT LeftForeArm
						{
							OFFSET 33.000050 0.000008 0.000040
							CHANNELS 3 Zrotation Yrotation Xrotation
							JOINT LeftHand
							{
								OFFSET 25.199986 0.000029 0.000006
								CHANNELS 3 Zrotation Yrotation Xrotation
								JOINT LeftThumb1
								{
									OFFSET 25.199986 0.000029 0.000006
									CHANNELS 3 Zrotation Yrotation Xrotation
									JOINT LeftThumb2
									{
										OFFSET 25.199986 0.000029 0.000006
										CHANNELS 3 Zrotation Yrotation Xrotation
										JOINT LeftThumb3
										{
											OFFSET 25.199986 0.000029 0.000006
											CHANNELS 3 Zrotation Yrotation Xrotation
											End Site
											{
												OFFSET 0.000000 0.000000 0.000000
											}
										}
									}
								}
								JOINT LeftIndex1
								{
									OFFSET 25.199986 0.000029 0.000006
									CHANNELS 3 Zrotation Yrotation Xrotation
									JOINT LeftIndex2
									{
										OFFSET 25.199986 0.000029 0.000006
										CHANNELS 3 Zrotation Yrotation Xrotation
										JOINT LeftIndex3
										{
											OFFSET 25.199986 0.000029 0.000006
											CHANNELS 3 Zrotation Yrotation Xrotation
											End Site
											{
												OFFSET 0.000000 0.000000 0.000000
											}
										}
									}
								}
								JOINT LeftMiddle1
								{
									OFFSET 25.199986 0.000029 0.000006
									CHANNELS 3 Zrotation Yrotation Xrotation
									JOINT LeftMiddle2
									{
										OFFSET 25.199986 0.000029 0.000006
										CHANNELS 3 Zrotation Yrotation Xrotation
										JOINT LeftMiddle3
										{
											OFFSET 25.199986 0.000029 0.000006
											CHANNELS 3 Zrotation Yrotation Xrotation
											End Site
											{
												OFFSET 0.000000 0.000000 0.000000
											}
										}
									}
								}
								JOINT LeftRing1
								{
									OFFSET 25.199986 0.000029 0.000006
									CHANNELS 3 Zrotation Yrotation Xrotation
									JOINT LeftRing2
									{
										OFFSET 25.199986 0.000029 0.000006
										CHANNELS 3 Zrotation Yrotation Xrotation
										JOINT LeftRing3
										{
											OFFSET 25.199986 0.000029 0.000006
											CHANNELS 3 Zrotation Yrotation Xrotation
											End Site
											{
												OFFSET 0.000000 0.000000 0.000000
											}
										}
									}
								}
								JOINT LeftPinky1
								{
									OFFSET 25.199986 0.000029 0.000006
									CHANNELS 3 Zrotation Yrotation Xrotation
									JOINT LeftPinky2
									{
										OFFSET 25.199986 0.000029 0.000006
										CHANNELS 3 Zrotation Yrotation Xrotation
										JOINT LeftPinky3
										{
											OFFSET 25.199986 0.000029 0.000006
											CHANNELS 3 Zrotation Yrotation Xrotation
											End Site
											{
												OFFSET 0.000000 0.000000 0.000000
											}
										}
									}
								}
							}
						}
					}
				}
				JOINT RightShoulder
				{
					OFFSET 19.746086 -1.480392 -6.000091
					CHANNELS 3 Zrotation Yrotation Xrotation
					JOINT RightArm
					{
						OFFSET 11.284138 -0.000036 -0.000015
						CHANNELS 3 Zrotation Yrotation Xrotation
						JOINT RightForeArm
						{
							OFFSET 33.000099 0.000026 0.000006
							CHANNELS 3 Zrotation Yrotation Xrotation
							JOINT RightHand
							{
								OFFSET 25.199776 0.000139 0.000412
								CHANNELS 3 Zrotation Yrotation Xrotation
								JOINT RightThumb1
								{
									OFFSET 25.199986 0.000029 0.000006
									CHANNELS 3 Zrotation Yrotation Xrotation
									JOINT RightThumb2
									{
										OFFSET 25.199986 0.000029 0.000006
										CHANNELS 3 Zrotation Yrotation Xrotation
										JOINT RightThumb3
										{
											OFFSET 25.199986 0.000029 0.000006
											CHANNELS 3 Zrotation Yrotation Xrotation
											End Site
											{
												OFFSET 0.000000 0.000000 0.000000
											}
										}
									}
								}
								JOINT RightIndex1
								{
									OFFSET 25.199986 0.000029 0.000006
									CHANNELS 3 Zrotation Yrotation Xrotation
									JOINT RightIndex2
									{
										OFFSET 25.199986 0.000029 0.000006
										CHANNELS 3 Zrotation Yrotation Xrotation
										JOINT RightIndex3
										{
											OFFSET 25.199986 0.000029 0.000006
											CHANNELS 3 Zrotation Yrotation Xrotation
											End Site
											{
												OFFSET 0.000000 0.000000 0.000000
											}
										}
									}
								}
								JOINT RightMiddle1
								{
									OFFSET 25.199986 0.000029 0.000006
									CHANNELS 3 Zrotation Yrotation Xrotation
									JOINT RightMiddle2
									{
										OFFSET 25.199986 0.000029 0.000006
										CHANNELS 3 Zrotation Yrotation Xrotation
										JOINT RightMiddle3
										{
											OFFSET 25.199986 0.000029 0.000006
											CHANNELS 3 Zrotation Yrotation Xrotation
											End Site
											{
												OFFSET 0.000000 0.000000 0.000000
											}
										}
									}
								}
								JOINT RightRing1
								{
									OFFSET 25.199986 0.000029 0.000006
									CHANNELS 3 Zrotation Yrotation Xrotation
									JOINT RightRing2
									{
										OFFSET 25.199986 0.000029 0.000006
										CHANNELS 3 Zrotation Yrotation Xrotation
										JOINT RightRing3
										{
											OFFSET 25.199986 0.000029 0.000006
											CHANNELS 3 Zrotation Yrotation Xrotation
											End Site
											{
												OFFSET 0.000000 0.000000 0.000000
											}
										}
									}
								}
								JOINT RightPinky1
								{
									OFFSET 25.199986 0.000029 0.000006
									CHANNELS 3 Zrotation Yrotation Xrotation
									JOINT RightPinky2
									{
										OFFSET 25.199986 0.000029 0.000006
										CHANNELS 3 Zrotation Yrotation Xrotation
										JOINT RightPinky3
										{
											OFFSET 25.199986 0.000029 0.000006
											CHANNELS 3 Zrotation Yrotation Xrotation
											End Site
											{
												OFFSET 0.000000 0.000000 0.000000
											}
										}
									}
								}
							}
						}
					}
				}
			}
		}
	}
}
MOTION
Frames: 5
Frame Time: 120.0
0.000021 0.276880 1.014986 70.030338 61.282782 70.335884 -11.846995 -6.504886 -4.677503 24.042307 6.724862 0.453274 4.402125 2.058759 -2.615667 11.804268 -0.152017 -3.492812 0.192864 -1.922007 2.133612 0.000000 0.000000 0.000000 5.165969 7.958251 -3.089396 -4.962586 11.541577 3.862055 0.000000 0.000000 0.000000 7.802655 7.278403 -2.824459 -11.247863 -1.250330 12.255129 14.579783 -0.234366 3.488823 2.036510 8.589203 20.889091 -10.090983 -7.568376 -21.391641 8.087082 -0.483809 -23.971681 21.082981 -2.342773 -1.609903 48.756662 15.866504 -5.245318 8.218315 -4.920804 -67.643724 -28.638690 1.521574 3.029851 4.079607 27.159631 51.510697 30.685279 2.633374 -15.891444 14.268323 -26.780833 12.072383 9.485711 44.414722 -12.578485 1.828682 -8.312824 23.226805 13.401115 13.543166 -35.046093 6.398719 2.457541 -23.860360 6.234430 -3.780701 -43.328215 -5.522910 -5.209084 -10.797922 -6.766347 2.918868 -30.342957 -8.233312 3.165116 -40.385339 -1.099100 -5.290512 -19.361019 -26.186061 -11.246242 -35.836077 -12.298675 -3.781423 -29.042899 -21.183645 -3.457492 -4.554455 -8.128535 -4.918994 -36.413087 -17.380193 -3.316336 -36.175937 6.398719 -2.457541 23.860360 6.234430 3.780701 43.328215 -5.522910 5.209084 10.797922 -6.766347 -2.918868 30.342957 -8.233312 -3.165116 40.385339 -1.099100 5.290512 19.361019 -26.186061 11.246242 35.836077 -12.298675 3.781423 29.042899 -21.183645 3.457492 4.554455 -8.128535 4.918994 36.413087 -17.380193 3.316336 36.175937 -10.090983 7.568376 21.391641 48.756662 -15.866504 5.245318 -28.638690 -1.521574 -3.029851 30.685279 -2.633374 15.891444
0.002130 0.277264 1.016272 70.030336 61.074973 70.372465 -11.417558 -6.670636 -4.845409 25.863464 6.743889 0.467502 4.518815 2.010129 -2.626171 11.281031 0.028074 -3.694971 0.081574 -2.014949 2.111642 0.000000 0.000000 0.000000 5.218937 7.834240 -3.224073 -5.322324 12.166829 3.995787 0.000000 0.000000 0.000000 8.243774 6.982587 -3.011358 -10.136246 -1.049797 12.868810 14.511283 -0.299607 3.452910 2.039971 8.577018 20.885383 -10.090983 -7.568376 -21.391641 8.022508 -0.664588 -23.953839 21.380276 -2.197588 -1.643169 48.756662 15.866504 -5.245318 8.081464 -5.048059 -67.735853 -28.638690 1.521574 3.029851 4.366579 27.049479 51.856864 30.685279 2.633374 -15.891444 13.726067 -26.392818 12.047339 9.666060 43.987385 -12.541407 2.557583 -8.376728 23.221037 13.953606 13.500169 -34.786271 6.398719 2.457541 -23.860360 6.234430 -3.780701 -43.328215 -5.522910 -5.209084 -10.797922 -6.766347 2.918868 -30.342957 -8.233312 3.165116 -40.385339 -1.099100 -5.290512 -19.361019 -26.186061 -11.246242 -35.836077 -12.298675 -3.781423 -29.042899 -21.183645 -3.457492 -4.554455 -8.128535 -4.918994 -36.413087 -17.380193 -3.316336 -36.175937 6.398719 -2.457541 23.860360 6.234430 3.780701 43.328215 -5.522910 5.209084 10.797922 -6.766347 -2.918868 30.342957 -8.233312 -3.165116 40.385339 -1.099100 5.290512 19.361019 -26.186061 11.246242 35.836077 -12.298675 3.781423 29.042899 -21.183645 3.457492 4.554455 -8.128535 4.918994 36.413087 -17.380193 3.316336 36.175937 -10.090983 7.568376 21.391641 48.756662 -15.866504 5.245318 -28.638690 -1.521574 -3.029851 30.685279 -2.633374 15.891444
0.003981 0.277457 1.017723 70.170608 60.921070 70.378534 -11.179894 -6.653678 -5.106788 27.980428 6.546926 0.536630 4.335657 2.005501 -2.582456 10.398809 0.259061 -3.971191 0.411839 -2.076981 2.116645 0.000000 0.000000 0.000000 4.968182 7.650364 -3.527748 -5.788417 12.357516 4.139658 0.000000 0.000000 0.000000 8.796753 6.939405 -3.067302 -8.745359 -0.604102 13.434959 14.606197 -0.230227 3.487406 2.117405 8.592114 21.062084 -10.090983 -7.568376 -21.391641 7.908038 -0.845064 -23.954526 21.512272 -2.211474 -1.620309 48.756662 15.866504 -5.245318 8.123202 -5.318628 -67.720000 -28.638690 1.521574 3.029851 4.746757 26.914252 52.080472 30.685279 2.633374 -15.891444 13.263973 -25.859442 12.015289 9.846251 43.521941 -12.493544 2.860037 -8.404607 23.196805 14.120254 13.570934 -34.340998 6.398719 2.457541 -23.860360 6.234430 -3.780701 -43.328215 -5.522910 -5.209084 -10.797922 -6.766347 2.918868 -30.342957 -8.233312 3.165116 -40.385339 -1.099100 -5.290512 -19.361019 -26.186061 -11.246242 -35.836077 -12.298675 -3.781423 -29.042899 -21.183645 -3.457492 -4.554455 -8.128535 -4.918994 -36.413087 -17.380193 -3.316336 -36.175937 6.398719 -2.457541 23.860360 6.234430 3.780701 43.328215 -5.522910 5.209084 10.797922 -6.766347 -2.918868 30.342957 -8.233312 -3.165116 40.385339 -1.099100 5.290512 19.361019 -26.186061 11.246242 35.836077 -12.298675 3.781423 29.042899 -21.183645 3.457492 4.554455 -8.128535 4.918994 36.413087 -17.380193 3.316336 36.175937 -10.090983 7.568376 21.391641 48.756662 -15.866504 5.245318 -28.638690 -1.521574 -3.029851 30.685279 -2.633374 15.891444
0.005363 0.277693 1.019154 70.325336 60.793521 70.359286 -10.922202 -6.594304 -5.354615 30.230139 6.209150 0.679699 4.215746 1.966627 -2.615752 9.332011 0.523180 -4.260765 0.746978 -2.099381 2.201596 0.000000 0.000000 0.000000 4.698440 7.459403 -3.853143 -6.435130 12.323268 4.220411 0.000000 0.000000 0.000000 9.299919 6.992330 -3.091384 -6.990536 -0.266343 14.123061 14.577541 -0.132183 3.563603 2.084780 8.532099 21.305634 -10.090983 -7.568376 -21.391641 7.757113 -0.994053 -23.852798 21.560626 -2.238461 -1.562726 48.756662 15.866504 -5.245318 8.193521 -5.835379 -67.678280 -28.638690 1.521574 3.029851 5.194811 26.903225 52.230850 30.685279 2.633374 -15.891444 12.738405 -25.230952 11.834996 9.835807 42.903685 -12.293410 2.926702 -8.458436 23.200794 14.480522 13.850904 -33.647032 6.398719 2.457541 -23.860360 6.234430 -3.780701 -43.328215 -5.522910 -5.209084 -10.797922 -6.766347 2.918868 -30.342957 -8.233312 3.165116 -40.385339 -1.099100 -5.290512 -19.361019 -26.186061 -11.246242 -35.836077 -12.298675 -3.781423 -29.042899 -21.183645 -3.457492 -4.554455 -8.128535 -4.918994 -36.413087 -17.380193 -3.316336 -36.175937 6.398719 -2.457541 23.860360 6.234430 3.780701 43.328215 -5.522910 5.209084 10.797922 -6.766347 -2.918868 30.342957 -8.233312 -3.165116 40.385339 -1.099100 5.290512 19.361019 -26.186061 11.246242 35.836077 -12.298675 3.781423 29.042899 -21.183645 3.457492 4.554455 -8.128535 4.918994 36.413087 -17.380193 3.316336 36.175937 -10.090983 7.568376 21.391641 48.756662 -15.866504 5.245318 -28.638690 -1.521574 -3.029851 30.685279 -2.633374 15.891444
0.006497 0.277994 1.020505 70.048027 60.517241 70.376081 -10.173140 -6.229721 -5.469042 32.465190 5.816117 0.731568 4.328875 1.885964 -2.703516 8.635263 0.804084 -4.288406 0.621704 -2.019350 2.129404 0.000000 0.000000 0.000000 5.169402 7.172899 -3.820990 -7.203924 11.997863 4.240079 0.000000 0.000000 0.000000 9.690315 6.979190 -2.974293 -5.026709 -0.039943 14.839038 14.078385 -0.242257 3.640080 1.729413 8.467543 21.321820 -10.090983 -7.568376 -21.391641 7.432516 -0.964129 -23.521562 21.920831 -1.985777 -1.475773 48.756662 15.866504 -5.245318 8.154828 -6.307378 -67.980708 -28.638690 1.521574 3.029851 5.614810 26.720280 52.679817 30.685279 2.633374 -15.891444 12.559264 -24.492517 12.000849 9.818877 42.351048 -11.964485 3.639628 -8.858225 22.778463 14.726927 14.647363 -32.264351 6.398719 2.457541 -23.860360 6.234430 -3.780701 -43.328215 -5.522910 -5.209084 -10.797922 -6.766347 2.918868 -30.342957 -8.233312 3.165116 -40.385339 -1.099100 -5.290512 -19.361019 -26.186061 -11.246242 -35.836077 -12.298675 -3.781423 -29.042899 -21.183645 -3.457492 -4.554455 -8.128535 -4.918994 -36.413087 -17.380193 -3.316336 -36.175937 6.398719 -2.457541 23.860360 6.234430 3.780701 43.328215 -5.522910 5.209084 10.797922 -6.766347 -2.918868 30.342957 -8.233312 -3.165116 40.385339 -1.099100 5.290512 19.361019 -26.186061 11.246242 35.836077 -12.298675 3.781423 29.042899 -21.183645 3.457492 4.554455 -8.128535 4.918994 36.413087 -17.380193 3.316336 36.175937 -10.090983 7.568376 21.391641 48.756662 -15.866504 5.245318 -28.638690 -1.521574 -3.029851 30.685279 -2.633374 15.891444
